<svg width="32" height="32" viewBox="0 0 32 32" fill="none" xmlns="http://www.w3.org/2000/svg">
<rect width="32" height="32" rx="16" fill="white"/>
<path d="M23.8408 10H8.15921C7.96818 10.0009 7.78402 10.0715 7.64115 10.1985C7.49828 10.3255 7.40647 10.5004 7.38289 10.6903L6.00493 23.1347C5.99267 23.2432 6.00333 23.3529 6.0362 23.457C6.06907 23.561 6.12343 23.6569 6.19573 23.7386C6.26803 23.8202 6.35667 23.8856 6.45587 23.9307C6.55507 23.9757 6.66263 23.9993 6.77154 24H25.2285C25.3374 23.9993 25.4449 23.9757 25.5441 23.9307C25.6433 23.8856 25.732 23.8202 25.8043 23.7386C25.8766 23.6569 25.9309 23.561 25.9638 23.457C25.9967 23.3529 26.0073 23.2432 25.9951 23.1347L24.6171 10.6903C24.5935 10.5004 24.5017 10.3255 24.3588 10.1985C24.216 10.0715 24.0318 10.0009 23.8408 10V10Z" stroke="#0A0A0A" stroke-width="2" stroke-linecap="round" stroke-linejoin="round"/>
<path d="M12 13V9.88889C12 8.85749 12.4214 7.86834 13.1716 7.13903C13.9217 6.40972 14.9391 6 16 6C17.0609 6 18.0783 6.40972 18.8284 7.13903C19.5786 7.86834 20 8.85749 20 9.88889V13" stroke="#0A0A0A" stroke-width="1.7" stroke-linecap="round" stroke-linejoin="round"/>
</svg>
