<svg width="32" height="32" viewBox="0 0 32 32" fill="none" xmlns="http://www.w3.org/2000/svg">
<path d="M30.2758 20.391C30.0258 20.141 29.6867 20.0006 29.3331 20.0006C28.9796 20.0006 28.6405 20.141 28.3905 20.391L23.9998 24.7817V4.00033C23.9998 3.6467 23.8593 3.30756 23.6093 3.05752C23.3592 2.80747 23.0201 2.66699 22.6665 2.66699C22.3128 2.66699 21.9737 2.80747 21.7237 3.05752C21.4736 3.30756 21.3331 3.6467 21.3331 4.00033V24.7817L16.9425 20.391C16.691 20.1481 16.3542 20.0137 16.0046 20.0168C15.655 20.0198 15.3206 20.16 15.0734 20.4072C14.8262 20.6544 14.6859 20.9889 14.6829 21.3385C14.6799 21.6881 14.8143 22.0249 15.0571 22.2763L21.7238 28.943C21.8477 29.0672 21.9948 29.1657 22.1568 29.2329C22.3188 29.3001 22.4924 29.3347 22.6678 29.3347C22.8432 29.3347 23.0168 29.3001 23.1788 29.2329C23.3408 29.1657 23.4879 29.0672 23.6118 28.943L30.2785 22.2763C30.5281 22.0259 30.668 21.6867 30.6675 21.3331C30.667 20.9796 30.5261 20.6407 30.2758 20.391ZM16.9425 9.72433L10.2758 3.05766C10.1516 2.93323 10.0038 2.83486 9.84113 2.76833C9.51496 2.6335 9.14864 2.6335 8.82246 2.76833C8.65975 2.83486 8.51197 2.93323 8.3878 3.05766L1.72113 9.72433C1.47112 9.97469 1.3308 10.3141 1.33106 10.6679C1.33131 11.0218 1.4721 11.361 1.72246 11.611C1.97283 11.861 2.31225 12.0013 2.66607 12.0011C3.01989 12.0008 3.35912 11.86 3.60913 11.6097L7.9998 7.21899V28.0003C7.9998 28.3539 8.14027 28.6931 8.39032 28.9431C8.64037 29.1932 8.97951 29.3337 9.33313 29.3337C9.68675 29.3337 10.0259 29.1932 10.2759 28.9431C10.526 28.6931 10.6665 28.3539 10.6665 28.0003V7.21899L15.0571 11.6097C15.3086 11.8525 15.6454 11.9869 15.995 11.9839C16.3446 11.9809 16.679 11.8406 16.9262 11.5934C17.1734 11.3462 17.3137 11.0118 17.3167 10.6622C17.3197 10.3126 17.1853 9.9758 16.9425 9.72433Z" fill="black"/>
</svg>
